<svg width="16" height="13" viewBox="0 0 16 13" fill="none" xmlns="http://www.w3.org/2000/svg">
<path d="M1.95679 7.69393L5.34679 4.30393C5.43504 4.21558 5.48703 4.0974 5.49254 3.97265C5.49805 3.8479 5.45668 3.7256 5.37656 3.62981C5.29645 3.53402 5.18339 3.47168 5.05963 3.45505C4.93586 3.43842 4.81036 3.4687 4.70779 3.53993L4.63979 3.59593L0.396795 7.83893C0.314119 7.92179 0.263133 8.03102 0.252717 8.14761C0.242301 8.26419 0.273116 8.38073 0.339794 8.47693L0.396795 8.54693L4.63979 12.7889C4.72798 12.8775 4.84615 12.9299 4.97102 12.9356C5.09588 12.9414 5.21838 12.9002 5.31438 12.8202C5.41037 12.7401 5.4729 12.627 5.48963 12.5031C5.50637 12.3792 5.4761 12.2536 5.40479 12.1509L5.34679 12.0809L1.95779 8.69293H8.24979C10.197 8.69291 12.0679 7.93558 13.4668 6.58108C14.8657 5.22659 15.683 3.38112 15.7458 1.43493L15.7498 1.19293C15.7498 1.06032 15.6971 0.933147 15.6033 0.839379C15.5096 0.74561 15.3824 0.692932 15.2498 0.692932C15.1172 0.692932 14.99 0.74561 14.8962 0.839379C14.8025 0.933147 14.7498 1.06032 14.7498 1.19293C14.7496 2.87635 14.0963 4.49404 12.9274 5.70547C11.7584 6.9169 10.1651 7.62759 8.48279 7.68793L8.24979 7.69293H1.95679L5.34679 4.30293L1.95679 7.69293V7.69393Z" fill="black"/>
</svg>
