<svg width="21" height="21" viewBox="0 0 21 21" fill="none" xmlns="http://www.w3.org/2000/svg">
<path d="M4.41776 9.71087L7.80776 13.1009C7.896 13.1892 7.94799 13.3074 7.9535 13.4321C7.95901 13.5569 7.91764 13.6792 7.83752 13.775C7.75741 13.8708 7.64435 13.9331 7.52059 13.9497C7.39682 13.9664 7.27132 13.9361 7.16876 13.8649L7.09976 13.8079L2.85676 9.56487C2.77408 9.48201 2.72309 9.37278 2.71268 9.25619C2.70226 9.13961 2.73308 9.02306 2.79976 8.92687L2.85676 8.85687L7.10075 4.61587C7.18894 4.52728 7.30711 4.47494 7.43198 4.46916C7.55684 4.46338 7.67934 4.50458 7.77534 4.58464C7.87133 4.6647 7.93386 4.77781 7.9506 4.90168C7.96733 5.02555 7.93706 5.1512 7.86576 5.25387L7.80776 5.32387L4.41776 8.71087H10.7108C12.658 8.71089 14.5288 9.46822 15.9277 10.8227C17.3266 12.1772 18.1439 14.0227 18.2068 15.9689L18.2108 16.2119C18.2108 16.3445 18.1581 16.4717 18.0643 16.5654C17.9705 16.6592 17.8434 16.7119 17.7108 16.7119C17.5781 16.7119 17.451 16.6592 17.3572 16.5654C17.2634 16.4717 17.2108 16.3445 17.2108 16.2119C17.2108 14.5283 16.5576 12.9103 15.3887 11.6987C14.2197 10.487 12.6263 9.77622 10.9438 9.71587L10.7108 9.71087H4.41776L7.80776 13.1009L4.41676 9.71087H4.41776Z" fill="black"/>
</svg>
