<svg width="16" height="16" viewBox="0 0 16 16" fill="none" xmlns="http://www.w3.org/2000/svg" shape-rendering="geometricPrecision">
<rect x="9.5" y="9.5" width="31" height="31" shape-rendering="crispEdges"/>
<path d="M14.7818 3.75876L12.9293 2.94276C12.9285 2.94101 12.9288 2.93876 12.928 2.93701C12.8645 2.72201 12.7028 2.54326 12.4843 2.44651L12.4138 2.41501C12.433 2.30701 12.4265 2.19602 12.3948 2.09101C12.331 1.87851 12.17 1.70276 11.9533 1.60876L10.776 1.09801C10.6671 1.05096 10.5497 1.02679 10.431 1.02701C10.1985 1.02701 9.98428 1.11551 9.83328 1.26951L9.70153 1.21101C9.59297 1.16292 9.47551 1.13821 9.35678 1.13851C9.23228 1.13851 9.11528 1.16826 9.00853 1.21626L7.59853 0.595007C7.10678 0.379007 6.49253 0.545757 6.21778 0.964507L0.64553 9.47726C0.37128 9.89601 0.494779 10.4793 0.92803 10.7843L7.26303 15.2448C7.82378 15.6398 8.54603 15.5703 8.86628 15.0818L15.364 5.15501C15.684 4.66651 15.418 4.03901 14.7818 3.75876ZM8.63528 2.40901L9.06628 1.75076C9.12603 1.65926 9.23978 1.60726 9.35703 1.60726C9.40928 1.60726 9.46228 1.61751 9.51153 1.63951L9.99428 1.85351L10.1335 1.64101C10.1943 1.54876 10.3108 1.49576 10.4313 1.49576C10.4848 1.49576 10.5393 1.50601 10.5898 1.52801L11.767 2.03901C11.939 2.11351 12.006 2.28651 11.9165 2.42451L11.773 2.64326L12.2948 2.87501C12.4705 2.95276 12.5398 3.12976 12.4485 3.27001L11.992 3.96651C11.931 4.06001 11.8148 4.11201 11.6923 4.11201C11.6313 4.11201 11.5688 4.09876 11.5105 4.07201L8.76403 2.78201C8.60578 2.70776 8.54828 2.54126 8.63528 2.40901V2.40901ZM7.85778 14.5045L1.32828 10.0403L7.07153 1.26726L8.41953 1.88276L8.24328 2.15226C8.18751 2.23666 8.15054 2.33206 8.13488 2.43201C8.11922 2.53195 8.12524 2.63409 8.15253 2.73151C8.21053 2.93726 8.36078 3.11026 8.56453 3.20601L11.3108 4.49601C11.4301 4.55153 11.5601 4.58037 11.6918 4.58051C11.9788 4.58051 12.2378 4.44676 12.384 4.22251L12.651 3.81476L14.3483 4.58976L7.85778 14.5045" fill="black"/>
<path d="M7.92151 4.84449L11.5958 6.72874L11.8008 6.41524L8.11426 4.54974L7.92151 4.84449Z" fill="black"/>
<path d="M6.66349 4.617C6.67824 4.6585 6.72249 4.67425 6.76324 4.65125L7.75824 4.0935C7.76766 4.0886 7.77584 4.0816 7.78213 4.07305C7.78843 4.0645 7.79269 4.05462 7.79457 4.04416C7.79645 4.03371 7.79591 4.02296 7.793 4.01275C7.79008 4.00254 7.78486 3.99313 7.77774 3.98525L7.72324 3.92025C7.7075 3.90243 7.68623 3.8904 7.66284 3.88609C7.63945 3.88179 7.6153 3.88545 7.59424 3.8965L6.91324 4.28C6.87324 4.303 6.82824 4.28775 6.81424 4.246L6.69449 3.8975C6.68024 3.85675 6.63049 3.8315 6.58349 3.84125L6.49724 3.859C6.45049 3.8685 6.42299 3.91025 6.43724 3.951L6.66349 4.617" fill="black"/>
<path d="M6.79248 6.5685L10.394 8.5645L10.5995 8.251L6.98573 6.2735L6.79248 6.5685Z" fill="black"/>
<path d="M6.72848 5.68226L5.65323 5.10326L5.03973 6.04076L6.10323 6.63801L6.72848 5.68226Z" fill="black"/>
<path d="M5.66425 8.29251L9.1925 10.4003L9.3975 10.086L5.85675 7.99776L5.66425 8.29251Z" fill="black"/>
<path d="M5.60975 7.39201L4.55575 6.77901L3.9425 7.71651L4.984 8.34801L5.60975 7.39201Z" fill="black"/>
<path d="M4.53577 10.0163L7.99077 12.2353L8.19652 11.9218L4.72852 9.72176L4.53577 10.0163Z" fill="black"/>
<path d="M2.84497 9.39299L3.86447 10.0572L4.49022 9.10124L3.45847 8.45599L2.84497 9.39299Z" fill="black"/>
</svg>
