<svg width="20" height="20" viewBox="0 0 241 241" fill="none" xmlns="http://www.w3.org/2000/svg">
<path d="M217.727 24.2244C204.786 11.2838 190.022 5.06628 184.752 10.3372L149.11 45.9788L195.972 92.8411L231.614 57.1995C236.885 51.9285 230.667 37.1654 217.727 24.2244Z" fill="#FF6E83"/>
<path d="M195.133 46.8171C180.369 32.0526 163.525 24.9591 157.511 30.9728L121.013 67.4711L174.479 120.938L210.977 84.4395C216.991 78.4258 209.898 61.5817 195.133 46.8171V46.8171Z" fill="#BFBCAF"/>
<path d="M54.3874 211.807L22.2408 225.788C19.9014 226.806 17.1798 225.734 16.1626 223.395C15.9111 222.813 15.7814 222.186 15.7814 221.552C15.7814 220.919 15.9111 220.292 16.1626 219.71L30.1448 187.563C34.2032 178.233 45.0572 173.959 54.3879 178.017C63.7186 182.076 67.9926 192.93 63.9342 202.26C62.0034 206.699 58.4976 210.009 54.3874 211.807V211.807Z" fill="#2B2622"/>
<path d="M189.888 105.416C189.923 105.367 189.958 105.318 189.99 105.268C194.627 98.6231 187.532 82.6276 173.427 68.523C159.322 54.4179 143.326 47.323 136.682 51.9604C136.632 51.9924 136.584 52.0267 136.535 52.0606C136.475 52.1049 136.413 52.1468 136.355 52.1929C136.191 52.3191 136.031 52.4523 135.881 52.6024L135.805 52.6782H135.805V52.6787L51.0597 137.424C51.0597 137.424 27.0642 196.804 36.1054 205.845C45.1467 214.885 104.526 190.89 104.526 190.89L189.347 106.07C189.497 105.919 189.631 105.759 189.757 105.595C189.803 105.537 189.844 105.476 189.888 105.416Z" fill="#FFD469"/>
<path d="M51.0612 137.424L49.1775 149.163C48.9002 150.89 50.3956 152.38 52.1212 152.099L60.5341 150.725C62.1957 150.454 63.6629 151.831 63.4977 153.506L62.561 163.002C62.3967 164.669 63.8493 166.043 65.5043 165.786L74.0066 164.467C75.7449 164.197 77.2323 165.719 76.9226 167.451L75.4681 175.585C75.1688 177.261 76.555 178.758 78.2481 178.587L87.8175 177.622C89.432 177.459 90.7895 178.818 90.6243 180.432L89.6377 190.086C89.4678 191.748 90.9067 193.125 92.5589 192.883L104.736 191.099L36.1079 219.816C41.5827 214.341 27.407 200.165 21.9318 205.64L51.0612 137.424V137.424Z" fill="#E5AA6E"/>
<path d="M68.6714 140.525C68.0393 140.525 67.4215 140.338 66.8959 139.986C66.3704 139.635 65.9607 139.136 65.7189 138.552C65.477 137.968 65.4137 137.325 65.537 136.705C65.6603 136.086 65.9646 135.516 66.4116 135.069L137.185 64.2961C137.784 63.6981 138.597 63.3627 139.444 63.3633C140.291 63.364 141.102 63.7007 141.701 64.2996C142.3 64.8984 142.637 65.7104 142.637 66.5573C142.638 67.4041 142.302 68.2166 141.704 68.8162L70.9313 139.589C70.6349 139.886 70.2826 140.122 69.8948 140.283C69.507 140.443 69.0912 140.526 68.6714 140.525V140.525ZM89.011 157.668L159.784 86.8955C160.081 86.5989 160.317 86.2465 160.478 85.8586C160.64 85.4706 160.723 85.0547 160.723 84.6346C160.723 84.2145 160.641 83.7984 160.48 83.4102C160.32 83.0221 160.084 82.6693 159.787 82.3723C159.49 82.0752 159.137 81.8396 158.749 81.6789C158.361 81.5183 157.945 81.4358 157.525 81.436C157.105 81.4363 156.689 81.5194 156.301 81.6806C155.913 81.8418 155.56 82.0778 155.264 82.3753L84.4908 153.149C83.8929 153.749 83.5574 154.561 83.5581 155.408C83.5588 156.255 83.8955 157.067 84.4943 157.665C85.0932 158.264 85.9052 158.601 86.752 158.601C87.5989 158.602 88.4113 158.266 89.011 157.668V157.668ZM107.091 175.748L177.863 104.975C178.161 104.679 178.397 104.326 178.558 103.938C178.719 103.55 178.802 103.134 178.803 102.714C178.803 102.294 178.721 101.878 178.56 101.49C178.399 101.102 178.164 100.749 177.867 100.452C177.57 100.155 177.217 99.9193 176.829 99.7586C176.441 99.598 176.025 99.5155 175.605 99.5157C175.184 99.516 174.769 99.5991 174.381 99.7603C173.993 99.9215 173.64 100.158 173.344 100.455L102.571 171.228C101.973 171.828 101.637 172.64 101.638 173.487C101.638 174.334 101.975 175.146 102.574 175.745C103.173 176.343 103.985 176.68 104.832 176.681C105.679 176.681 106.491 176.346 107.091 175.748V175.748Z" fill="#FFB636"/>
</svg>
